#!OML:ASF E:\Steps\Project 1\Capture day 1\Session 2\Subject.ASF
:FULLY-SPECIFIED
:DEGREES
473
root 8.13113 16.0884 10.8778 -158.968 3.64806 177.044
lowerback -23.6564 -1.50907 -8.89222
upperback 0.876686 1.18709 -2.26622
thorax 14.2993 0.122699 2.93602
lowerneck -2.48971 -3.20662 -1.38051
upperneck 18.9141 -3.91192 4.90206
head 6.25734 -1.15128 1.60177
rclavicle -6.16232e-015 8.50798e-014
rhumerus -37.6162 -12.9131 -80.9739
rradius 39.3707
rwrist -3.71257
rhand -6.40358 -50.9087
rfingers 7.12502
rthumb 19.4444 -79.9565
lclavicle -6.16232e-015 8.50798e-014
lhumerus -33.7641 7.75314 77.7547
lradius 23.9251
lwrist -3.4017
lhand -20.9179 -12.8973
lfingers 7.12502
lthumb 5.45358 17.0125
rfemur -31.7142 -2.18232 20.2835
rtibia 58.9558
rfoot -9.54225 -9.66279
rtoes -31.5576
lfemur -34.379 -7.16122 -22.9739
ltibia 18.8245
lfoot -4.93119 0.252446
ltoes -33.4672
474
root 8.12172 16.0944 10.7843 -159.129 3.65419 176.87
lowerback -23.3897 -1.67428 -9.04824
upperback 0.971671 0.971831 -2.22763
thorax 14.2831 0.00632949 2.98957
lowerneck -2.31795 -3.03983 -1.41117
upperneck 18.7332 -3.65204 4.67386
head 6.15763 -1.05823 1.55055
rclavicle 4.96962e-015 2.22639e-014
rhumerus -37.7101 -12.5098 -81.0831
rradius 39.246
rwrist -3.39031
rhand -6.41734 -51.0097
rfingers 7.12502
rthumb 19.4311 -80.0588
lclavicle 4.96962e-015 2.22639e-014
lhumerus -33.5123 7.40793 78.1339
lradius 24.2053
lwrist -3.49296
lhand -21.2831 -12.9106
lfingers 7.12502
lthumb 5.10102 17.008
rfemur -32.7635 -2.54285 20.1339
rtibia 60.273
rfoot -11.0531 -10.181
rtoes -33.2071
lfemur -33.6113 -7.00685 -23.404
ltibia 18.4609
lfoot -5.01425 -0.121942
ltoes -31.8945
475
root 8.11159 16.1049 10.6926 -159.271 3.54569 176.836
lowerback -23.1013 -1.77597 -8.99162
upperback 1.0372 0.777129 -2.20329
thorax 14.2177 -0.081654 2.91484
lowerneck -2.27915 -3.03358 -1.3585
upperneck 18.7929 -3.62472 4.55272
head 6.16589 -1.04831 1.5057
rclavicle 6.36111e-015 1.43125e-014
rhumerus -37.975 -12.2531 -81.2167
rradius 39.3386
rwrist -3.33956
rhand -6.47448 -51.2727
rfingers 7.12502
rthumb 19.3762 -80.3274
lclavicle 6.36111e-015 1.43125e-014
lhumerus -33.3258 6.97728 78.4012
lradius 24.5797
lwrist -3.41567
lhand -21.1573 -12.4382
lfingers 7.12502
lthumb 5.22249 17.4774
rfemur -33.7373 -2.95411 20.1473
rtibia 61.2431
rfoot -11.1546 -11.0679
rtoes -32.0509
lfemur -32.8727 -6.97388 -23.6171
ltibia 18.114
lfoot -5.20489 -0.351875
ltoes -30.4454
476
root 8.10104 16.1141 10.5997 -159.316 3.49465 176.916
lowerback -23.0339 -1.75743 -8.79965
upperback 1.08841 0.734852 -2.199
thorax 14.2445 -0.0923813 2.79477
lowerneck -2.27349 -3.13788 -1.386
upperneck 18.9218 -3.77799 4.69863
head 6.214 -1.10481 1.54866
rclavicle 1.98785e-015 1.74931e-014
rhumerus -38.3391 -12.4025 -81.2198
rradius 39.409
rwrist -3.38921
rhand -6.62757 -51.2274
rfingers 7.12502
rthumb 19.229 -80.2968
lclavicle 1.98785e-015 1.74931e-014
lhumerus -33.0863 6.35878 78.684
lradius 24.9806
lwrist -3.17553
lhand -20.5316 -11.1599
lfingers 7.12502
lthumb 5.82656 18.74
rfemur -34.7847 -3.12536 20.2387
rtibia 62.0005
rfoot -11.2561 -11.8329
rtoes -30.9439
lfemur -32.203 -6.97197 -23.6767
ltibia 17.6965
lfoot -5.43427 -0.357438
ltoes -31.3171
477
root 8.09175 16.123 10.51 -159.317 3.45937 176.995
lowerback -22.9339 -1.77378 -8.67858
upperback 1.14973 0.6515 -2.14128
thorax 14.2678 -0.131413 2.76153
lowerneck -1.80705 -2.77961 -1.23869
upperneck 18.2501 -3.27824 4.46667
head 5.89805 -0.905242 1.47996
rclavicle 1.37161e-014 -1.82882e-014
rhumerus -38.5179 -12.4825 -81.1375
rradius 39.2868
rwrist -3.48667
rhand -6.64489 -51.1045
rfingers 7.12502
rthumb 19.2123 -80.1755
lclavicle 1.37161e-014 -1.82882e-014
lhumerus -32.7 5.90347 78.9908
lradius 25.1664
lwrist -3.19432
lhand -20.4912 -11.1531
lfingers 7.12502
lthumb 5.86562 18.7458
rfemur -35.9851 -3.08724 20.3046
rtibia 62.7271
rfoot -11.7655 -12.2743
rtoes -31.2864
lfemur -31.5731 -7.03009 -23.6927
ltibia 17.2211
lfoot -5.50827 -0.270372
ltoes -31.5886
478
root 8.08375 16.1351 10.4243 -159.326 3.3179 177.068
lowerback -22.7805 -1.84918 -8.5664
upperback 1.23473 0.482802 -2.06416
thorax 14.2976 -0.212424 2.72555
lowerneck -2.2095 -2.94963 -1.59954
upperneck 18.6732 -3.53281 4.76517
head 6.12057 -1.01367 1.61877
rclavicle 5.96354e-016 2.70347e-014
rhumerus -38.627 -12.57 -81.0492
rradius 39.1909
rwrist -3.57983
rhand -6.30435 -51.4509
rfingers 7.12502
rthumb 19.5398 -80.489
lclavicle 5.96354e-016 2.70347e-014
lhumerus -32.3207 5.57557 79.2165
lradius 25.3767
lwrist -3.3518
lhand -20.872 -12.3067
lfingers 7.12502
lthumb 5.49793 17.602
rfemur -37.1947 -3.07323 20.3568
rtibia 63.3513
rfoot -12.6443 -12.255
rtoes -31.6398
lfemur -31.0616 -7.14399 -23.6722
ltibia 17.0243
lfoot -5.63611 -0.297075
ltoes -30.9185
